<?xml version="1.0" encoding="UTF-8"?>
<svg id="Ebene_2" data-name="Ebene 2" xmlns="http://www.w3.org/2000/svg" viewBox="0 0 45.55 45.55">
  <defs>
    <style>
      .cls-1 {
        fill: none;
      }

      .cls-1, .cls-2 {
        stroke-width: 0px;
      }

      .cls-2 {
        fill: #fff;
      }
    </style>
  </defs>
  <g id="Ebene_1-2" data-name="Ebene 1">
    <g>
      <path class="cls-1" d="m22.44,12.33c-5.76,0-10.43,4.67-10.43,10.43s4.67,10.43,10.43,10.43v-10.41h10.43s0,0,0-.01c0-5.76-4.67-10.43-10.43-10.43Z"/>
      <path class="cls-2" d="m12.02,22.76c0-5.76,4.67-10.43,10.43-10.43s10.43,4.67,10.43,10.43c0,0,0,0,0,.01h12.68C45.55,10.2,35.36,0,22.78,0S0,10.2,0,22.78s9.9,22.47,22.22,22.76c.08,0,.15,0,.23,0v-12.35c-.1,0-.2,0-.29,0-5.62-.16-10.13-4.76-10.13-10.42Z"/>
    </g>
  </g>
</svg>