<?xml version="1.0" encoding="UTF-8"?>
<svg id="Ebene_2" data-name="Ebene 2" xmlns="http://www.w3.org/2000/svg" viewBox="0 0 45.65 68.26">
  <defs>
    <style>
      .cls-1 {
        fill: none;
      }

      .cls-1, .cls-2 {
        stroke-width: 0px;
      }

      .cls-2 {
        fill: #fff;
      }
    </style>
  </defs>
  <g id="Ebene_1-2" data-name="Ebene 1">
    <g>
      <path class="cls-1" d="m33.64,22.79h-10.43v10.43c-.06,0-.11-.01-.16-.01v-10.58h-10.26c.09-5.68,4.72-10.26,10.42-10.26s10.43,4.66,10.43,10.42Z"/>
      <path class="cls-2" d="m23.21,33.22v12.33h-.16v-12.34s.1.01.16.01Z"/>
      <path class="cls-2" d="m45.65,22.78h0s-12.01.01-12.01.01c0-5.76-4.67-10.42-10.43-10.42s-10.33,4.58-10.42,10.26c0,.05-.01.11-.01.16,0,5.7,4.59,10.33,10.27,10.42v12.47h-10.63v22.58H.1V22.61C.19,10.11,10.36,0,22.88,0s22.77,10.2,22.77,22.78Z"/>
      <rect class="cls-2" y="22.63" width=".1" height="23.05"/>
    </g>
  </g>
</svg>