<?xml version="1.0" encoding="UTF-8"?>
<svg id="Ebene_2" data-name="Ebene 2" xmlns="http://www.w3.org/2000/svg" viewBox="0 0 45.66 45.66">
  <defs>
    <style>
      .cls-1 {
        fill: #fff;
        stroke-width: 0px;
      }
    </style>
  </defs>
  <g id="Ebene_1-2" data-name="Ebene 1">
    <g>
      <path class="cls-1" d="m22.83,45.65c-.11,0-.21,0-.32,0v.02h23.14v-22.11h-.02c-.39,12.27-10.44,22.1-22.81,22.1Z"/>
      <path class="cls-1" d="m22.5,33.26c-5.77,0-10.45-4.68-10.45-10.45s4.55-10.31,10.2-10.44V0C9.91.31,0,10.4,0,22.82s10.05,22.65,22.51,22.82v-12.39s0,0-.01,0Z"/>
      <path class="cls-1" d="m45.64,23.55h-12.53l.24,1.43c-.57,4.37-4.01,7.8-8.38,8.36l-2.46-.09v12.39c.11,0,.21,0,.32,0,12.36,0,22.42-9.83,22.81-22.1Z"/>
    </g>
  </g>
</svg>