<?xml version="1.0" encoding="UTF-8"?>
<svg id="Ebene_2" data-name="Ebene 2" xmlns="http://www.w3.org/2000/svg" viewBox="0 0 45.77 68.43">
  <defs>
    <style>
      .cls-1 {
        fill: none;
      }

      .cls-1, .cls-2 {
        stroke-width: 0px;
      }

      .cls-2 {
        fill: #fff;
      }
    </style>
  </defs>
  <g id="Ebene_1-2" data-name="Ebene 1">
    <g>
      <path class="cls-1" d="m23.11,35.14v10.61h-10.28c.09,5.69,4.73,10.29,10.44,10.29s10.46-4.68,10.46-10.45h-10.45v-10.45s0,0,0,0c-.05,0-.1,0-.16,0Z"/>
      <path class="cls-2" d="m23.27,35.13s0,0,0,0v-12.36c-.05,0-.11,0-.16,0v12.37c.05,0,.1,0,.16,0Z"/>
      <path class="cls-2" d="m45.77,45.58h-12.04c0,5.77-4.68,10.45-10.46,10.45s-10.35-4.59-10.44-10.29H.11v.02c.09,12.53,10.28,22.67,22.83,22.67s22.83-10.23,22.83-22.84c0,0,0,0,0-.01Z"/>
      <rect class="cls-2" x=".11" width="12.35" height="22.63"/>
      <rect class="cls-2" y="22.63" width=".11" height="23.11"/>
      <path class="cls-2" d="m22.94,22.76c.06,0,.11,0,.17,0v-.13h-10.65v2.68c3.13-1.63,6.7-2.55,10.48-2.55Z"/>
      <path class="cls-2" d="m12.82,45.58c0-5.72,4.6-10.36,10.29-10.44v-12.37c-.06,0-.11,0-.17,0-3.78,0-7.35.92-10.48,2.55v-2.68H.11v23.11h12.72c0-.05,0-.11,0-.16Z"/>
    </g>
  </g>
</svg>