<?xml version="1.0" encoding="UTF-8"?>
<svg id="Ebene_2" data-name="Ebene 2" xmlns="http://www.w3.org/2000/svg" viewBox="0 0 45.66 45.66">
  <defs>
    <style>
      .cls-1 {
        fill: none;
      }

      .cls-1, .cls-2 {
        stroke-width: 0px;
      }

      .cls-2 {
        fill: #fff;
      }
    </style>
  </defs>
  <g id="Ebene_1-2" data-name="Ebene 1">
    <g>
      <path class="cls-1" d="m22.5,12.36c-5.77,0-10.45,4.68-10.45,10.45s4.68,10.45,10.45,10.45v-10.44h10.45s0,0,0-.01c0-5.77-4.68-10.45-10.45-10.45Z"/>
      <path class="cls-2" d="m12.05,22.82c0-5.77,4.68-10.45,10.45-10.45s10.45,4.68,10.45,10.45c0,0,0,0,0,.01h12.71C45.66,10.22,35.44,0,22.83,0S0,10.22,0,22.83s10.04,22.64,22.5,22.82v-12.38c-5.77,0-10.45-4.68-10.45-10.45Z"/>
    </g>
  </g>
</svg>