<?xml version="1.0" encoding="UTF-8"?>
<svg id="Ebene_2" data-name="Ebene 2" xmlns="http://www.w3.org/2000/svg" viewBox="0 0 78.89 22.94">
  <defs>
    <style>
      .cls-1 {
        fill: #fff;
        stroke-width: 0px;
      }
    </style>
  </defs>
  <g id="Ebene_1-2" data-name="Ebene 1">
    <g>
      <path class="cls-1" d="m23.15,0C10.78,0,.39,10.67,0,22.94h12.06c.38-5.42,5.23-10.55,10.75-10.55s9.7,5.12,10.08,10.55h.37c.18-5.76,2.57-11.17,6.33-15.28C35.52,3,29.71,0,23.15,0Z"/>
      <path class="cls-1" d="m56.41,0c-6.56,0-12.56,3-16.81,7.66,3.31,3.78,5.47,8.66,5.94,13.9,1.03-4.88,5.49-9.16,10.54-9.16,5.52,0,9.7,5.12,10.08,10.55h12.73c-.39-12.27-10.12-22.94-22.48-22.94Z"/>
      <path class="cls-1" d="m33.27,22.94h12.06c.03-.47.11-.93.21-1.39-.47-5.24-2.63-10.11-5.94-13.9-3.76,4.12-6.15,9.52-6.33,15.28Z"/>
    </g>
  </g>
</svg>