<?xml version="1.0" encoding="UTF-8"?>
<svg id="Ebene_2" data-name="Ebene 2" xmlns="http://www.w3.org/2000/svg" viewBox="0 0 45.67 45.67">
  <defs>
    <style>
      .cls-1 {
        fill: none;
      }

      .cls-1, .cls-2 {
        stroke-width: 0px;
      }

      .cls-2 {
        fill: #fff;
      }
    </style>
  </defs>
  <g id="Ebene_1-2" data-name="Ebene 1">
    <g>
      <path class="cls-2" d="m12.05,42.96v2.71H0v-22.84c0,8.71,4.88,16.28,12.05,20.13Z"/>
      <g>
        <path class="cls-1" d="m22.5,12.36c-5.77,0-10.45,4.68-10.45,10.46,0,.17.02.34.03.52h20.86c0-.17.03-.34.03-.52,0-5.78-4.68-10.46-10.46-10.46Z"/>
        <path class="cls-2" d="m12.08,23.34c0-.17-.03-.34-.03-.52,0-5.78,4.68-10.46,10.45-10.46s10.46,4.68,10.46,10.46c0,.17-.02.34-.03.52h12.72c0-.17.01-.34.01-.51C45.67,10.22,35.45,0,22.84,0S.31,9.91.01,22.26c-.01.19-.01.38-.01.57,0,8.71,4.88,16.28,12.05,20.13v-19.62h.03Z"/>
      </g>
    </g>
  </g>
</svg>